name Walk4.mot
datacolumns 19
datarows 20
range 2.05500000 2.07400000
endheader

                time	   L_ground_force_vx	   L_ground_force_vy	   L_ground_force_vz	   L_ground_force_px	   L_ground_force_py	   L_ground_force_pz	   R_ground_force_vx	   R_ground_force_vy	   R_ground_force_vz	   R_ground_force_px	   R_ground_force_py	   R_ground_force_pz	   L_ground_torque_x	   L_ground_torque_y	   L_ground_torque_z	   R_ground_torque_x	   R_ground_torque_y	   R_ground_torque_z	
          2.05500000	          0.00435327	          0.01693911	         -0.00353073	         -0.00010579	          0.00000000	         -0.00006180	        -24.56249608	        860.65830241	        -43.29072672	          0.42517460	          0.00000000	          0.10021952	          0.00000000	         -0.00000902	          0.00000000	          0.00000000	          2.43292171	          0.00000000	
          2.05600000	          0.00312950	          0.01374418	         -0.00324651	         -0.00009965	          0.00000000	         -0.00005847	        -24.05493646	        858.43296751	        -43.09263727	          0.42531423	          0.00000000	          0.10030818	          0.00000000	         -0.00001133	          0.00000000	          0.00000000	          2.34523341	          0.00000000	
          2.05700000	          0.00199796	          0.01076896	         -0.00297418	         -0.00009366	          0.00000000	         -0.00005521	        -23.55101227	        856.23962691	        -42.89283352	          0.42545176	          0.00000000	          0.10039611	          0.00000000	         -0.00001341	          0.00000000	          0.00000000	          2.25795328	          0.00000000	
          2.05800000	          0.00095508	          0.00800602	         -0.00271377	         -0.00008782	          0.00000000	         -0.00005201	        -23.05064554	        854.07902972	        -42.69164910	          0.42558728	          0.00000000	          0.10048331	          0.00000000	         -0.00001525	          0.00000000	          0.00000000	          2.17107505	          0.00000000	
          2.05900000	         -0.00000275	          0.00544773	         -0.00246525	         -0.00008214	          0.00000000	         -0.00004889	        -22.55375778	        851.95193514	        -42.48942215	          0.42572090	          0.00000000	          0.10056979	          0.00000000	         -0.00001689	          0.00000000	          0.00000000	          2.08459225	          0.00000000	
          2.06000000	         -0.00087912	          0.00308638	         -0.00222854	         -0.00007664	          0.00000000	         -0.00004584	        -22.06027014	        849.85910670	        -42.28649453	          0.42585271	          0.00000000	          0.10065556	          0.00000000	         -0.00001832	          0.00000000	          0.00000000	          1.99849843	          0.00000000	
          2.06100000	         -0.00167766	          0.00091414	         -0.00200354	         -0.00007131	          0.00000000	         -0.00004289	        -21.57010355	        847.80130614	        -42.08321086	          0.42598281	          0.00000000	          0.10074063	          0.00000000	         -0.00001956	          0.00000000	          0.00000000	          1.91278726	          0.00000000	
          2.06200000	         -0.00240196	         -0.00107687	         -0.00179009	         -0.00006617	          0.00000000	         -0.00004002	        -21.08317885	        845.77928730	        -41.87991767	          0.42611130	          0.00000000	          0.10082500	          0.00000000	         -0.00002062	          0.00000000	          0.00000000	          1.82745270	          0.00000000	
          2.06300000	         -0.00305561	         -0.00289452	         -0.00158803	         -0.00006121	          0.00000000	         -0.00003724	        -20.59941712	        843.79379040	        -41.67696257	          0.42623828	          0.00000000	          0.10090869	          0.00000000	         -0.00002151	          0.00000000	          0.00000000	          1.74248900	          0.00000000	
          2.06400000	         -0.00364213	         -0.00454669	         -0.00139715	         -0.00005645	          0.00000000	         -0.00003456	        -20.11874002	        841.84553710	        -41.47469342	          0.42636383	          0.00000000	          0.10099169	          0.00000000	         -0.00002224	          0.00000000	          0.00000000	          1.65789074	          0.00000000	
          2.06500000	         -0.00416502	         -0.00604120	         -0.00121722	         -0.00005188	          0.00000000	         -0.00003198	        -19.64107023	        839.93522619	        -41.27345750	          0.42648806	          0.00000000	          0.10107403	          0.00000000	         -0.00002283	          0.00000000	          0.00000000	          1.57365276	          0.00000000	
          2.06600000	         -0.00462771	         -0.00738582	         -0.00104799	         -0.00004750	          0.00000000	         -0.00002950	        -19.16633194	        838.06352988	        -41.07360048	          0.42661106	          0.00000000	          0.10115572	          0.00000000	         -0.00002328	          0.00000000	          0.00000000	          1.48977013	          0.00000000	
          2.06700000	         -0.00503358	         -0.00858820	         -0.00088918	         -0.00004331	          0.00000000	         -0.00002711	        -18.69445123	        836.23109024	        -40.87546542	          0.42673293	          0.00000000	          0.10123676	          0.00000000	         -0.00002361	          0.00000000	          0.00000000	          1.40623809	          0.00000000	
          2.06800000	         -0.00538592	         -0.00965590	         -0.00074052	         -0.00003932	          0.00000000	         -0.00002483	        -18.22535645	        834.43851545	        -40.67939154	          0.42685377	          0.00000000	          0.10131718	          0.00000000	         -0.00002382	          0.00000000	          0.00000000	          1.32305193	          0.00000000	
          2.06900000	         -0.00568795	         -0.01059633	         -0.00060170	         -0.00003551	          0.00000000	         -0.00002265	        -17.75897849	        832.68637613	        -40.48571305	          0.42697367	          0.00000000	          0.10139700	          0.00000000	         -0.00002392	          0.00000000	          0.00000000	          1.24020696	          0.00000000	
          2.07000000	         -0.00594280	         -0.01141676	         -0.00047241	         -0.00003190	          0.00000000	         -0.00002056	        -17.29525105	        830.97520192	        -40.29475800	          0.42709271	          0.00000000	          0.10147624	          0.00000000	         -0.00002392	          0.00000000	          0.00000000	          1.15769841	          0.00000000	
          2.07100000	         -0.00615353	         -0.01212429	         -0.00035233	         -0.00002847	          0.00000000	         -0.00001858	        -16.83411094	        829.30547870	        -40.10684714	          0.42721101	          0.00000000	          0.10155493	          0.00000000	         -0.00002383	          0.00000000	          0.00000000	          1.07552141	          0.00000000	
          2.07200000	         -0.00632309	         -0.01272585	         -0.00024113	         -0.00002523	          0.00000000	         -0.00001669	        -16.37549830	        827.67764664	        -39.92229303	          0.42732865	          0.00000000	          0.10163309	          0.00000000	         -0.00002366	          0.00000000	          0.00000000	          0.99367116	          0.00000000	
          2.07300000	         -0.00645434	         -0.01322818	         -0.00013847	         -0.00002216	          0.00000000	         -0.00001491	        -15.91935701	        826.09209915	        -39.74139923	          0.42744571	          0.00000000	          0.10171076	          0.00000000	         -0.00002342	          0.00000000	          0.00000000	          0.91214308	          0.00000000	
          2.07400000	         -0.00655004	         -0.01363781	         -0.00004401	         -0.00001928	          0.00000000	         -0.00001321	        -15.46563498	        824.54918254	        -39.56445969	          0.42756231	          0.00000000	          0.10178794	          0.00000000	         -0.00002310	          0.00000000	          0.00000000	          0.83093317	          0.00000000	
